<svg width="27" height="27" viewBox="0 0 27 27" fill="none" xmlns="http://www.w3.org/2000/svg">
<path d="M2.38889 22H24.6111C25.375 22 26 21.3625 26 20.5833C26 19.8042 25.375 19.1667 24.6111 19.1667H2.38889C1.625 19.1667 1 19.8042 1 20.5833C1 21.3625 1.625 22 2.38889 22ZM2.38889 14.9167H24.6111C25.375 14.9167 26 14.2792 26 13.5C26 12.7208 25.375 12.0833 24.6111 12.0833H2.38889C1.625 12.0833 1 12.7208 1 13.5C1 14.2792 1.625 14.9167 2.38889 14.9167ZM1 6.41667C1 7.19583 1.625 7.83333 2.38889 7.83333H24.6111C25.375 7.83333 26 7.19583 26 6.41667C26 5.6375 25.375 5 24.6111 5H2.38889C1.625 5 1 5.6375 1 6.41667Z" fill="white"/>
</svg>
