<svg width="27" height="26" viewBox="0 0 27 26" fill="none" xmlns="http://www.w3.org/2000/svg">
<path d="M18.8496 2C20.8862 2 22.5872 2.69575 23.9521 4.08789C25.3171 5.48016 26 7.21561 26 9.29297C25.9999 11.8343 25.0788 14.1657 23.2373 16.2871C21.3957 18.4086 19.3047 20.541 16.9648 22.6846L14.7549 24.7402C14.2566 25.2264 13.6716 25.4697 13 25.4697C12.3284 25.4697 11.7434 25.2263 11.2451 24.7402L9.00195 22.6514C6.7055 20.5079 4.63121 18.3803 2.7793 16.2695C0.926614 14.1596 7.17434e-05 11.8342 0 9.29297C0 7.21561 0.682868 5.48016 2.04785 4.08789C3.41277 2.69586 5.11393 2 7.15039 2C8.29841 2.00007 9.38133 2.2485 10.3994 2.74512C11.4177 3.24279 12.285 3.92231 13 4.78418C13.7149 3.92244 14.5814 3.24275 15.5996 2.74512C16.6179 2.24834 17.7013 2.00002 18.8496 2ZM19.1865 4.28516C18.1096 4.2852 17.1927 4.53604 16.4365 5.03809C15.6805 5.54105 14.9701 6.27142 14.3057 7.22949C14.1453 7.46312 13.9507 7.63899 13.7217 7.75586C13.4925 7.87273 13.2511 7.93066 12.999 7.93066C12.7471 7.93061 12.5064 7.87268 12.2773 7.75586C12.0482 7.63899 11.8538 7.46321 11.6934 7.22949C11.0288 6.2712 10.3177 5.54108 9.56152 5.03809C8.80531 4.53606 7.88854 4.28516 6.81152 4.28516C5.43672 4.28525 4.29059 4.75261 3.37402 5.6875C2.45763 6.62241 1.99902 7.79109 1.99902 9.19336C1.99903 10.4088 2.42359 11.7005 3.27148 13.0674C4.11934 14.4351 5.13392 15.7614 6.31445 17.0469C7.49416 18.3324 8.70864 19.5362 9.95801 20.6582C11.2065 21.7802 12.2199 22.7041 12.999 23.4287C13.7782 22.7041 14.7926 21.7802 16.042 20.6582C17.2905 19.5362 18.5049 18.3324 19.6855 17.0469C20.8652 15.7614 21.8797 14.4352 22.7275 13.0674C23.5754 11.7005 23.999 10.4088 23.999 9.19336C23.999 7.79093 23.5406 6.62247 22.624 5.6875C21.7074 4.75252 20.5615 4.28516 19.1865 4.28516Z" fill="white"/>
</svg>
