<svg width="27" height="26" viewBox="0 0 27 26" fill="none" xmlns="http://www.w3.org/2000/svg">
<path d="M22.5352 3.01712V9.02135C21.875 8.72327 21.1708 8.55294 20.4225 8.51035V4.67786L16.1972 6.67928V9.31944C15.4049 9.74527 14.6567 10.2988 14.0845 10.9802V6.42378L8.4507 4.55011V17.3677L13.0722 18.8581C13.3803 19.6672 13.8204 20.4337 14.2165 21.115C14.3046 21.2427 14.3926 21.3705 14.4806 21.4982L7.13028 19.1136L1.49648 21.6686C1.18838 21.7963 0.792254 21.7963 0.484155 21.5834C0.176056 21.4131 0 21.0724 0 20.7317V5.74244C0 5.3592 0.22007 4.97595 0.616197 4.80561L6.07394 2.33579C6.64613 2.08029 7.30634 2.0377 7.92254 2.20804L15.537 4.72045L20.9947 2.12287C21.3468 1.95254 21.743 1.95254 22.0511 2.16545C22.3592 2.33579 22.5352 2.67645 22.5352 3.01712ZM6.33803 4.46495L2.11268 6.38119V19.1136L6.33803 17.1973V4.46495ZM19.7183 10.5118C22.6232 10.5118 25 12.7687 25 15.5366C25 18.4748 22.1831 21.9241 20.6866 23.5848C20.1585 24.1384 19.2782 24.1384 18.794 23.5848C17.2535 21.9241 14.4366 18.4748 14.4366 15.5366C14.4366 12.7687 16.8134 10.5118 19.7183 10.5118ZM17.9577 15.6218C17.9577 16.5586 18.75 17.3251 19.7183 17.3251C20.6866 17.3251 21.4789 16.5586 21.4789 15.6218C21.4789 14.6849 20.6866 13.9184 19.7183 13.9184C18.75 13.9184 17.9577 14.6849 17.9577 15.6218Z" fill="white"/>
</svg>
