<svg width="27" height="27" viewBox="0 0 27 27" fill="none" xmlns="http://www.w3.org/2000/svg">
<path d="M13.5 0C20.9558 0 26.9998 6.04428 27 13.5C27 20.9559 20.9559 27 13.5 27C6.04432 26.9998 0 20.9557 0 13.5C0.00017703 6.04442 6.04443 0.000230829 13.5 0ZM13.5 19.126C10.6194 19.126 7.96958 20.1107 5.86719 21.7617C7.87285 23.6156 10.5534 24.75 13.5 24.75C16.4458 24.75 19.1254 23.6157 21.1309 21.7627C19.0288 20.1117 16.3803 19.1261 13.5 19.126ZM13.5 2.25C7.28696 2.2501 2.25017 7.28698 2.25 13.5C2.25 15.9545 3.03798 18.2239 4.37207 20.0732C6.87378 18.0721 10.0472 16.876 13.5 16.876C16.9525 16.876 20.1253 18.0723 22.627 20.0732C23.9612 18.2239 24.75 15.9547 24.75 13.5C24.7498 7.28692 19.7131 2.25 13.5 2.25ZM13.5 5.625C15.9852 5.62503 17.9998 7.63987 18 10.125C18 12.6103 15.9853 14.625 13.5 14.625C11.0148 14.6249 9 12.6102 9 10.125C9.00017 7.63994 11.0149 5.62514 13.5 5.625ZM13.5 7.875C12.2576 7.87514 11.2502 8.88258 11.25 10.125C11.25 11.3676 12.2575 12.3749 13.5 12.375C14.7425 12.3748 15.75 11.3675 15.75 10.125C15.7498 8.88262 14.7424 7.87521 13.5 7.875Z" fill="white"/>
</svg>
