<svg width="27" height="26" viewBox="0 0 27 26" fill="none" xmlns="http://www.w3.org/2000/svg">
<path d="M5.2 5.9C4.83437 5.9 4.55 6.17708 4.55 6.53333V7.16667H2.6V6.53333C2.6 5.14792 3.77813 4 5.2 4H16.9C18.3219 4 19.5 5.14792 19.5 6.53333V7.8H21.7344C22.425 7.8 23.1156 8.07708 23.6031 8.55208L25.2281 10.1354C25.7156 10.6104 26 11.2833 26 11.9563V17.9333C26 19.3188 24.8219 20.4667 23.4 20.4667H23.2781C22.8313 21.9312 21.45 23 19.825 23C18.2 23 16.8188 21.9312 16.3719 20.4667H12.2281C11.7812 21.9312 10.4 23 8.775 23C7.15 23 5.76875 21.9312 5.32188 20.4667H5.2C3.77813 20.4667 2.6 19.3188 2.6 17.9333V14.7667H0.975C0.446875 14.7667 0 14.3313 0 13.8167C0 13.3021 0.446875 12.8667 0.975 12.8667H5.525C6.05312 12.8667 6.5 13.3021 6.5 13.8167C6.5 14.3313 6.05312 14.7667 5.525 14.7667H4.55V17.9333C4.55 18.2896 4.83437 18.5667 5.2 18.5667H5.32188C5.76875 17.1021 7.15 16.0333 8.775 16.0333C10.4 16.0333 11.7812 17.1021 12.2281 18.5667H16.3719C16.575 17.8938 16.9813 17.2604 17.55 16.825V6.53333C17.55 6.17708 17.2656 5.9 16.9 5.9H5.2ZM19.5 12.8667H24.05V11.9563C24.05 11.7583 23.9688 11.6 23.8469 11.4813L22.2219 9.89792C22.1 9.77917 21.9375 9.7 21.7344 9.7H19.5V12.8667ZM19.5 14.7667V16.0333C19.6219 16.0333 19.7031 16.0333 19.825 16.0333C21.45 16.0333 22.8313 17.1021 23.2781 18.5667H23.4C23.7656 18.5667 24.05 18.2896 24.05 17.9333V14.7667H19.5ZM2.6 9.06667H8.125C8.65312 9.06667 9.1 9.50208 9.1 10.0167C9.1 10.5312 8.65312 10.9667 8.125 10.9667H0.975C0.446875 10.9667 0 10.5312 0 10.0167C0 9.50208 0.446875 9.06667 0.975 9.06667H2.6ZM8.775 17.9333C7.88125 17.9333 7.15 18.6458 7.15 19.5167C7.15 20.3875 7.88125 21.1 8.775 21.1C9.66875 21.1 10.4 20.3875 10.4 19.5167C10.4 18.6458 9.66875 17.9333 8.775 17.9333ZM19.825 17.9333C18.9312 17.9333 18.2 18.6458 18.2 19.5167C18.2 20.3875 18.9312 21.1 19.825 21.1C20.7188 21.1 21.45 20.3875 21.45 19.5167C21.45 18.6458 20.7188 17.9333 19.825 17.9333Z" fill="white"/>
</svg>
