<svg width="27" height="26" viewBox="0 0 27 26" fill="none" xmlns="http://www.w3.org/2000/svg">
<path d="M6.8778 2.13184C8.1297 1.71457 9.52071 2.3173 10.0771 3.52276L11.8854 7.55643C12.3955 8.66917 12.0709 9.921 11.1436 10.6628L10.0307 11.5901C11.2363 13.9083 13.091 15.8092 15.3629 17.0611L16.3366 15.8556C17.0785 14.9283 18.3768 14.6038 19.4432 15.1138L23.4771 16.9683C24.6827 17.4783 25.2854 18.8692 24.8681 20.1211C23.9408 23.042 21.0197 25.5457 17.4031 24.8966C9.38161 23.4593 3.53938 17.6638 2.10201 9.59645C1.45287 6.02642 4.00305 3.10549 6.8778 2.13184ZM8.03697 4.45004C7.94424 4.26459 7.75877 4.17186 7.5733 4.21822C5.48679 4.96005 3.91032 6.9537 4.32762 9.17917C5.57953 16.3192 10.6799 21.4656 17.8204 22.7175C20.046 23.0884 22.0861 21.512 22.7816 19.4256C22.828 19.2402 22.7353 19.0547 22.5498 18.962L18.5159 17.1074C18.3768 17.0611 18.1913 17.1074 18.0522 17.2465L16.5221 19.1938C16.1975 19.5647 15.6411 19.7038 15.1775 19.472C11.7927 17.8956 9.10341 15.1138 7.61967 11.6828C7.4342 11.2192 7.5733 10.7092 7.94424 10.3846L9.75254 8.94735C9.89165 8.85462 9.93801 8.66917 9.89165 8.48371L8.03697 4.45004Z" fill="white"/>
</svg>
