<svg width="27" height="27" viewBox="0 0 27 27" fill="none" xmlns="http://www.w3.org/2000/svg">
<path d="M14 0.701904C15.8281 0.701904 17.4531 1.76831 18.2656 3.34253C19.9414 2.78394 21.8711 3.19019 23.1914 4.5105C24.5117 5.83081 24.918 7.7605 24.3594 9.43628C25.9336 10.2488 27 11.8738 27 13.7019C27 15.5808 25.9336 17.2058 24.3594 18.0183C24.918 19.6941 24.5117 21.573 23.1914 22.8933C21.8711 24.2136 19.9414 24.6199 18.2656 24.1121C17.4531 25.6863 15.8281 26.7019 14 26.7019C12.1211 26.7019 10.4961 25.6863 9.68359 24.1121C8.00781 24.6199 6.12891 24.2136 4.80859 22.8933C3.48828 21.573 3.08203 19.6941 3.58984 18.0183C2.01562 17.2058 1 15.5808 1 13.7019C1 11.8738 2.01562 10.2488 3.58984 9.43628C3.08203 7.7605 3.48828 5.83081 4.80859 4.5105C6.12891 3.19019 8.00781 2.78394 9.68359 3.34253C10.4961 1.76831 12.1211 0.701904 14 0.701904ZM10.75 12.0769C11.6133 12.0769 12.375 11.366 12.375 10.4519C12.375 9.58862 11.6133 8.8269 10.75 8.8269C9.83594 8.8269 9.125 9.58862 9.125 10.4519C9.125 11.366 9.83594 12.0769 10.75 12.0769ZM18.875 16.9519C18.875 16.0886 18.1133 15.3269 17.25 15.3269C16.3359 15.3269 15.625 16.0886 15.625 16.9519C15.625 17.866 16.3359 18.5769 17.25 18.5769C18.1133 18.5769 18.875 17.866 18.875 16.9519ZM18.1133 11.3152C18.5703 10.8582 18.5703 10.0964 18.1133 9.6394C17.6055 9.13159 16.8438 9.13159 16.3867 9.6394L9.88672 16.0886C9.37891 16.5964 9.37891 17.3582 9.88672 17.8152C10.3438 18.323 11.1055 18.323 11.5625 17.8152L18.1133 11.3152Z" fill="white"/>
</svg>
