<svg width="27" height="27" viewBox="0 0 27 27" fill="none" xmlns="http://www.w3.org/2000/svg">
<path d="M18.6966 10.9427C18.6966 6.47173 15.0386 2.81369 10.5677 2.81369C6.09673 2.81369 2.43869 6.47173 2.43869 10.9427C2.43869 15.4136 6.09673 19.0716 10.5677 19.0716C15.0386 19.0716 18.6966 15.4136 18.6966 10.9427ZM17.1216 19.224C15.3434 20.6466 13.0572 21.5103 10.5677 21.5103C4.72496 21.5103 0 16.7854 0 10.9427C0 5.09996 4.72496 0.375 10.5677 0.375C16.4104 0.375 21.1353 5.09996 21.1353 10.9427C21.1353 13.4322 20.2716 15.7184 18.849 17.4966L25.6571 24.3047C26.1143 24.7619 26.1143 25.5748 25.6571 26.0321C25.1998 26.4893 24.3869 26.4893 23.9297 26.0321L17.1216 19.224Z" fill="white"/>
</svg>
