<svg width="27" height="27" viewBox="0 0 27 27" fill="none" xmlns="http://www.w3.org/2000/svg">
<path d="M6.25368 11.2H3.375L5.75735 22.0771C5.85662 22.4604 6.15441 22.7 6.55147 22.7H20.4485C20.8456 22.7 21.1434 22.4604 21.2426 22.0771L23.625 11.2H6.25368ZM17.4706 8.9L15.2371 6.6L15.1379 6.50417L13.5 4.82708L11.8621 6.50417L11.7629 6.6L9.52941 8.9H17.4706ZM25.8088 8.9C26.454 8.9 27 9.42708 27 10.05C27 10.625 26.6029 11.0562 26.057 11.2L23.5754 22.5562C23.2279 23.9937 21.9375 25 20.4485 25H6.55147C5.0625 25 3.77206 23.9937 3.42463 22.5562L0.943015 11.2C0.397059 11.0562 0 10.625 0 10.05C0 9.42708 0.545956 8.9 1.19118 8.9H6.25368L7.79228 7.31875C10.9688 4.06042 12.557 2.43125 12.6562 2.38333C12.8548 2.14375 13.1526 2 13.5 2C13.8474 2 14.1452 2.14375 14.3934 2.38333L15.2371 3.24583C18.3143 6.36042 20.1507 8.27708 20.7463 8.9H25.8088ZM9.52941 14.65V19.25C9.52941 19.8729 8.98346 20.4 8.33823 20.4C7.69301 20.4 7.14706 19.8729 7.14706 19.25V14.65C7.14706 14.0271 7.69301 13.5 8.33823 13.5C8.98346 13.5 9.52941 14.0271 9.52941 14.65ZM13.5 13.5C14.1452 13.5 14.6912 14.0271 14.6912 14.65V19.25C14.6912 19.8729 14.1452 20.4 13.5 20.4C12.8548 20.4 12.3088 19.8729 12.3088 19.25V14.65C12.3088 14.0271 12.8548 13.5 13.5 13.5ZM19.8529 14.65V19.25C19.8529 19.8729 19.307 20.4 18.6618 20.4C18.0165 20.4 17.4706 19.8729 17.4706 19.25V14.65C17.4706 14.0271 18.0165 13.5 18.6618 13.5C19.307 13.5 19.8529 14.0271 19.8529 14.65Z" fill="white"/>
</svg>
