<svg width="137" height="46" viewBox="0 0 137 46" fill="none" xmlns="http://www.w3.org/2000/svg">
<path fill-rule="evenodd" clip-rule="evenodd" d="M23.2836 45.2917C10.8401 45.2917 0.716797 35.2915 0.716797 23C0.716797 10.7082 10.8401 0.708008 23.2836 0.708008H113.716C126.16 0.708008 136.283 10.7082 136.283 23C136.283 35.2915 126.16 45.2917 113.716 45.2917H23.2836Z" fill="white"/>
<path fill-rule="evenodd" clip-rule="evenodd" d="M113.716 0H23.284C10.4451 0 0 10.3177 0 22.9999C0 35.682 10.4451 46 23.284 46H113.716C126.555 46 137 35.682 137 22.9999C137 10.3177 126.555 0 113.716 0M113.716 1.41634C125.765 1.41634 135.566 11.0987 135.566 22.9999C135.566 34.901 125.765 44.5837 113.716 44.5837H23.284C11.2357 44.5837 1.43382 34.901 1.43382 22.9999C1.43382 11.0987 11.2357 1.41634 23.284 1.41634H113.716" fill="#A7A8AA"/>
<path fill-rule="evenodd" clip-rule="evenodd" d="M120.794 11.6358H117.464V8.34591C117.464 7.1797 116.503 6.23047 115.322 6.23047C114.141 6.23047 113.18 7.1797 113.18 8.34591V11.6358H109.85C108.669 11.6358 107.708 12.5847 107.708 13.7512C107.708 14.9177 108.669 15.8669 109.85 15.8669H113.18V19.1565C113.18 20.3233 114.141 21.2722 115.322 21.2722C116.503 21.2722 117.464 20.3233 117.464 19.1565V15.8669H120.794C121.975 15.8669 122.936 14.9177 122.936 13.7512C122.936 12.5847 121.975 11.6358 120.794 11.6358Z" fill="#78BE20"/>
<path d="M85.4546 17.7158C89.5262 17.7158 93.0472 19.4528 93.0474 24.2979V33.2529C93.0473 33.6425 92.7276 33.9578 92.3335 33.958H88.9282C88.5144 33.958 88.1792 33.6269 88.1792 33.2188V31.46H88.1177C86.8629 33.4403 85.3324 34.3242 83.0669 34.3242C79.9134 34.3242 77.0962 32.7696 77.0962 29.3262C77.0964 24.4812 82.3933 23.9023 85.3325 23.9023C86.2199 23.9024 87.1996 23.9932 87.9038 24.1152C87.873 21.9519 86.2503 21.373 84.2603 21.373C82.6326 21.3731 81.0676 21.6288 79.6284 22.333C79.4478 22.4213 79.1721 22.2252 79.1675 22.0264L79.0972 19.2578C79.0909 19.0095 79.2418 18.7797 79.4771 18.6924C81.3186 18.0086 83.2532 17.7158 85.4546 17.7158ZM47.1782 29.4854C48.4415 29.4856 49.4653 30.5441 49.4653 31.8486C49.4653 33.1535 48.4415 34.2117 47.1782 34.2119C45.9147 34.2119 44.8901 33.1536 44.8901 31.8486C44.8901 30.5439 45.9148 29.4854 47.1782 29.4854ZM24.3267 12.6641C30.8944 12.6641 35.4896 14.9892 35.4897 23.2168C35.4897 31.1702 30.7595 33.9433 24.3267 33.9434H18.2173C17.8497 33.9434 17.5513 33.6068 17.5513 33.1924V13.415C17.5513 13.0003 17.8497 12.6641 18.2173 12.6641H24.3267ZM41.9097 20.1387C43.7154 17.3021 46.6765 17.5948 48.2319 18.1738C48.4727 18.2637 48.6008 18.5224 48.519 18.7637L47.5317 21.6865C47.4225 22.0103 47.0734 22.18 46.7407 22.0879C44.3565 21.4305 41.9097 22.7076 41.9097 26.7285V33.1924C41.9097 33.6067 41.6122 33.9433 41.2446 33.9434H37.8833C37.5157 33.9433 37.2173 33.6068 37.2173 33.1924V18.8701C37.2175 18.4559 37.5158 18.1201 37.8833 18.1201H41.2446C41.6121 18.1202 41.9095 18.4559 41.9097 18.8701V20.1387ZM59.356 12.6787C59.7235 12.6787 60.1161 13.0144 60.2329 13.4287L63.772 26.0264L67.312 13.4287C67.4286 13.0145 67.8214 12.6787 68.189 12.6787H73.1606C73.528 12.679 73.8571 13.0146 73.896 13.4287L75.731 33.2949C75.7694 33.7095 75.5027 33.9432 75.1353 33.9434H71.5171C71.1493 33.9432 70.8204 33.7095 70.7817 33.2949L69.5894 20.3486L65.98 33.2949C65.8851 33.6328 65.7294 33.9432 65.3315 33.9434H62.2134C61.8363 33.9434 61.6599 33.6329 61.5649 33.2949L57.9556 20.3486L56.5542 33.2949C56.5158 33.7095 56.1873 33.9432 55.8198 33.9434H52.4097C52.0421 33.9433 51.7753 33.7096 51.814 33.2949L53.6489 13.4287C53.6875 13.0145 54.0165 12.6788 54.3843 12.6787H59.356ZM98.8892 18.1201C99.3107 18.1199 99.5588 18.18 99.8657 18.5938L102.433 22.0898L105 18.5938C105.307 18.1798 105.555 18.1198 105.977 18.1201H109.941C110.362 18.1206 110.513 18.4106 110.303 18.7119L105.075 25.8076L110.512 33.1992C110.777 33.5263 110.627 33.9432 110.218 33.9434H106.217C105.799 33.9414 105.523 33.7421 105.278 33.4072L102.433 29.5254L99.5884 33.4072C99.343 33.7422 99.0674 33.9413 98.6489 33.9434H94.6479C94.2389 33.9433 94.0884 33.5263 94.353 33.1992L99.7915 25.8076L94.563 18.7119C94.3531 18.4106 94.5034 18.1205 94.9253 18.1201H98.8892ZM85.5776 26.8271C83.7099 26.8271 82.2397 27.407 82.2397 28.9307C82.24 30.0275 83.22 30.667 84.5054 30.667C86.5872 30.667 87.9038 28.7777 87.9038 26.9189C87.1997 26.8886 86.4039 26.8272 85.5776 26.8271ZM22.7231 16.8789V29.7383H24.4341C28.9445 29.7383 30.1958 27.5444 30.1958 23.3086C30.1958 19.0729 28.9804 16.8789 24.4341 16.8789H22.7231Z" fill="#E72234"/>
</svg>
