<svg width="41" height="40" viewBox="0 0 41 40" fill="none" xmlns="http://www.w3.org/2000/svg">
<g clip-path="url(#clip0_2213_22317)">
<path d="M20.9102 40C31.9559 40 40.9102 31.0457 40.9102 20C40.9102 8.9543 31.9559 0 20.9102 0C9.86446 0 0.910156 8.9543 0.910156 20C0.910156 31.0457 9.86446 40 20.9102 40Z" fill="#F0F0F0"/>
<path d="M19.1706 20C19.1706 20 6.7793 34.1449 6.76758 34.1421C10.3868 37.7614 15.3869 40 20.9098 40C31.9554 40 40.9098 31.0456 40.9098 20H19.1706Z" fill="#D80027"/>
<path d="M6.76801 5.85782C-1.04246 13.6683 -1.04246 26.3316 6.76801 34.1422C9.99559 30.9146 13.0997 27.8105 20.9102 20L6.76801 5.85782Z" fill="#0052B4"/>
</g>
<defs>
<clipPath id="clip0_2213_22317">
<rect width="40" height="40" fill="white" transform="translate(0.910156)"/>
</clipPath>
</defs>
</svg>
