<svg width="41" height="41" viewBox="0 0 41 41" fill="none" xmlns="http://www.w3.org/2000/svg">
<g clip-path="url(#clip0_3420_31998)">
<path d="M20.9102 40.6364C31.9558 40.6364 40.9102 31.682 40.9102 20.6364C40.9102 9.59066 31.9558 0.636353 20.9102 0.636353C9.86446 0.636353 0.910156 9.59066 0.910156 20.6364C0.910156 31.682 9.86446 40.6364 20.9102 40.6364Z" fill="#F0F0F0"/>
<path d="M5.045 8.45992C3.47398 10.5039 2.28937 12.8598 1.59961 15.4191H12.0041L5.045 8.45992Z" fill="#0052B4"/>
<path d="M40.2188 15.4191C39.5291 12.8598 38.3444 10.504 36.7734 8.46L29.8145 15.4191H40.2188Z" fill="#0052B4"/>
<path d="M1.59961 25.8538C2.28945 28.4131 3.47406 30.7689 5.045 32.8128L12.0039 25.8538H1.59961Z" fill="#0052B4"/>
<path d="M33.088 4.77079C31.044 3.19977 28.6882 2.01516 26.1289 1.32532V11.7298L33.088 4.77079Z" fill="#0052B4"/>
<path d="M8.73242 36.5019C10.7764 38.0729 13.1323 39.2575 15.6915 39.9473V29.543L8.73242 36.5019Z" fill="#0052B4"/>
<path d="M15.6914 1.32532C13.1322 2.01516 10.7763 3.19977 8.73242 4.77071L15.6914 11.7297V1.32532Z" fill="#0052B4"/>
<path d="M26.1289 39.9473C28.6881 39.2575 31.044 38.0729 33.0879 36.502L26.1289 29.543V39.9473Z" fill="#0052B4"/>
<path d="M29.8145 25.8538L36.7734 32.8129C38.3444 30.769 39.5291 28.4131 40.2188 25.8538H29.8145Z" fill="#0052B4"/>
<path d="M40.7409 18.0277H23.519H23.5189V0.805649C22.6649 0.694478 21.7943 0.636353 20.9102 0.636353C20.0259 0.636353 19.1554 0.694478 18.3015 0.805649V18.0275V18.0276H1.07945C0.968281 18.8816 0.910156 19.7522 0.910156 20.6364C0.910156 21.5206 0.968281 22.3911 1.07945 23.245H18.3013H18.3014V40.4671C19.1554 40.5782 20.0259 40.6364 20.9102 40.6364C21.7943 40.6364 22.6649 40.5783 23.5188 40.4671V23.2452V23.2451H40.7409C40.852 22.3911 40.9102 21.5206 40.9102 20.6364C40.9102 19.7522 40.852 18.8816 40.7409 18.0277Z" fill="#D80027"/>
<path d="M26.1289 25.8539L35.0536 34.7785C35.4641 34.3682 35.8556 33.9392 36.2292 33.4946L28.5884 25.8538H26.1289V25.8539Z" fill="#D80027"/>
<path d="M15.6943 25.8539H15.6941L6.76953 34.7785C7.17984 35.1889 7.60883 35.5805 8.05352 35.9541L15.6943 28.3132V25.8539Z" fill="#D80027"/>
<path d="M15.6921 15.4191V15.4189L6.76742 6.49416C6.35695 6.90448 5.96539 7.33346 5.5918 7.77815L13.2327 15.419H15.6921V15.4191Z" fill="#D80027"/>
<path d="M26.1289 15.4191L35.0537 6.49425C34.6434 6.08378 34.2144 5.69221 33.7697 5.3187L26.1289 12.9596V15.4191Z" fill="#D80027"/>
</g>
<defs>
<clipPath id="clip0_3420_31998">
<rect width="40" height="40" fill="white" transform="translate(0.910156 0.636353)"/>
</clipPath>
</defs>
</svg>
