<svg width="41" height="40" viewBox="0 0 41 40" fill="none" xmlns="http://www.w3.org/2000/svg">
<g clip-path="url(#clip0_2213_22422)">
<g clip-path="url(#clip1_2213_22422)">
<path d="M27.867 1.24391C25.7002 0.440078 23.3569 1.03982e-08 20.9105 1.03982e-08C18.4641 -7.81146e-05 16.1206 0.440078 13.954 1.24391L12.2148 19.9999L13.954 38.7559C16.1205 39.56 18.464 40 20.9105 40C23.3568 40 25.7003 39.56 27.867 38.7559L29.606 20L27.867 1.24391Z" fill="#FFDA44"/>
<path d="M40.9107 20C40.9107 11.4008 35.4832 4.06977 27.8672 1.24399V38.7562C35.4832 35.9301 40.9106 28.5994 40.9107 20Z" fill="#D80027"/>
<path d="M0.910156 19.9999C0.910156 28.5994 6.33766 35.9301 13.9535 38.7561L13.9536 1.24405C6.33766 4.06983 0.910156 11.4006 0.910156 19.9999H0.910156Z" fill="#0052B4"/>
</g>
</g>
<defs>
<clipPath id="clip0_2213_22422">
<rect width="40" height="40" fill="white" transform="translate(0.910156)"/>
</clipPath>
<clipPath id="clip1_2213_22422">
<rect width="40" height="40" fill="white" transform="translate(0.910156)"/>
</clipPath>
</defs>
</svg>
