<svg width="41" height="40" viewBox="0 0 41 40" fill="none" xmlns="http://www.w3.org/2000/svg">
<g clip-path="url(#clip0_2213_22448)">
<g clip-path="url(#clip1_2213_22448)">
<path d="M20.9102 40C31.9559 40 40.9102 31.0457 40.9102 20C40.9102 8.9543 31.9559 0 20.9102 0C9.86446 0 0.910156 8.9543 0.910156 20C0.910156 31.0457 9.86446 40 20.9102 40Z" fill="#F0F0F0"/>
<path d="M20.9102 0C9.86453 0 0.910156 8.95437 0.910156 20C0.910156 22.4464 1.35023 24.7899 2.15414 26.9565H39.6663C40.4702 24.7899 40.9102 22.4464 40.9102 20C40.9102 8.95437 31.9558 0 20.9102 0Z" fill="#0052B4"/>
<path d="M20.9103 0C12.311 0 4.98016 5.4275 2.1543 13.0435H39.6664C36.8405 5.4275 29.5096 0 20.9103 0Z" fill="#D80027"/>
<path d="M6.08203 11.3044V21.2814C6.08203 26.9567 13.4962 28.6957 13.4962 28.6957C13.4962 28.6957 20.9102 26.9567 20.9102 21.2814V11.3044H6.08203Z" fill="#D80027"/>
<path d="M9.14844 13.0435H17.8441V9.56524L16.105 10.4348L13.4963 7.8261L10.8876 10.4348L9.14844 9.56524V13.0435Z" fill="#FFDA44"/>
<path d="M19.1716 22.6705L13.5194 17.0184L7.86719 22.6705L9.7118 24.5152L13.5194 20.7076L17.327 24.5152L19.1716 22.6705Z" fill="#FFDA44"/>
<path d="M19.1716 17.3913H16.5344C16.6827 17.1354 16.7689 16.839 16.7689 16.5219C16.7689 15.5613 15.9902 14.7828 15.0298 14.7828C14.3661 14.7828 13.7898 15.1545 13.4966 15.701C13.2034 15.1546 12.627 14.7828 11.9634 14.7828C11.0029 14.7828 10.2242 15.5613 10.2242 16.5219C10.2242 16.839 10.3105 17.1355 10.4587 17.3913H7.86719C7.86719 18.3519 8.70383 19.1305 9.66422 19.1305H9.60633C9.60633 20.091 10.3849 20.8696 11.3455 20.8696C11.3455 21.7201 11.9562 22.4266 12.7629 22.5779L11.3926 25.6718C12.0493 25.9387 12.767 26.087 13.5195 26.087C14.272 26.087 14.9896 25.9387 15.6463 25.6718L14.276 22.5779C15.0827 22.4268 15.6934 21.7202 15.6934 20.8696C16.654 20.8696 17.4326 20.091 17.4326 19.1305H17.3747C18.335 19.1305 19.1716 18.3518 19.1716 17.3913Z" fill="#F0F0F0"/>
</g>
</g>
<defs>
<clipPath id="clip0_2213_22448">
<rect width="40" height="40" fill="white" transform="translate(0.910156)"/>
</clipPath>
<clipPath id="clip1_2213_22448">
<rect width="40" height="40" fill="white" transform="translate(0.910156)"/>
</clipPath>
</defs>
</svg>
