<svg width="41" height="40" viewBox="0 0 41 40" fill="none" xmlns="http://www.w3.org/2000/svg">
<g clip-path="url(#clip0_2213_22400)">
<g clip-path="url(#clip1_2213_22400)">
<path d="M20.9102 40C31.9559 40 40.9102 31.0457 40.9102 20C40.9102 8.9543 31.9559 0 20.9102 0C9.86446 0 0.910156 8.9543 0.910156 20C0.910156 31.0457 9.86446 40 20.9102 40Z" fill="#F0F0F0"/>
<path d="M20.9102 40C31.9558 40 40.9102 31.0456 40.9102 20C40.9102 17.5536 40.4702 15.2101 39.6662 13.0435H2.15414C1.35023 15.2101 0.910156 17.5536 0.910156 20C0.910156 31.0456 9.86453 40 20.9102 40Z" fill="#0052B4"/>
<path d="M20.9103 40C29.5096 40 36.8405 34.5725 39.6663 26.9565H2.1543C4.98016 34.5725 12.311 40 20.9103 40Z" fill="#D80027"/>
<path d="M6.08203 11.3044V21.2814C6.08203 26.9567 13.4962 28.6957 13.4962 28.6957C13.4962 28.6957 20.9102 26.9567 20.9102 21.2814V11.3044H6.08203Z" fill="#F0F0F0"/>
<path d="M7.82031 11.3044V21.2814C7.82031 21.9477 7.96828 22.5769 8.26141 23.1668H18.7291C19.0223 22.577 19.1702 21.9477 19.1702 21.2814V11.3044H7.82031Z" fill="#D80027"/>
<path d="M16.9741 18.2609H14.3655V16.5217H16.1046V14.7826H14.3655V13.0435H12.6263V14.7826H10.8873V16.5217H12.6263V18.2609H10.0176V20H12.6263V21.7391H14.3655V20H16.9741V18.2609Z" fill="#F0F0F0"/>
<path d="M10.6338 25.5945C11.7545 26.2988 12.9059 26.7077 13.4954 26.8896C14.0848 26.7078 15.2363 26.2988 16.357 25.5945C17.4871 24.8842 18.2794 24.0719 18.7292 23.1668C18.233 22.8158 17.6277 22.6087 16.9737 22.6087C16.7355 22.6087 16.5042 22.6369 16.2818 22.6887C15.8105 21.6178 14.7405 20.8696 13.4955 20.8696C12.2504 20.8696 11.1804 21.6178 10.7091 22.6887C10.4867 22.6369 10.2553 22.6087 10.0173 22.6087C9.36328 22.6087 8.75789 22.8158 8.26172 23.1668C8.71133 24.0718 9.50359 24.8841 10.6338 25.5945Z" fill="#0052B4"/>
</g>
</g>
<defs>
<clipPath id="clip0_2213_22400">
<rect width="40" height="40" fill="white" transform="translate(0.910156)"/>
</clipPath>
<clipPath id="clip1_2213_22400">
<rect width="40" height="40" fill="white" transform="translate(0.910156)"/>
</clipPath>
</defs>
</svg>
